<svg width="17" height="17" viewBox="0 0 17 17" fill="none" xmlns="http://www.w3.org/2000/svg">
<path d="M1.95364 9.99071C1.95364 10.4972 2.09432 10.8911 2.37569 11.1724C2.65705 11.4538 3.05096 11.5945 3.55741 11.5945H9.97251C10.479 11.5945 10.8729 11.4538 11.1542 11.1724C11.4356 10.8911 11.5763 10.4972 11.5763 9.99071V3.57562C11.5763 3.06916 11.4356 2.67526 11.1542 2.39389C10.8729 2.11253 10.479 1.97185 9.97251 1.97185H3.55741C3.05096 1.97185 2.65705 2.11253 2.37569 2.39389C2.09432 2.67526 1.95364 3.06916 1.95364 3.57562V9.99071ZM0.349867 3.57562C0.349867 2.98476 0.490549 2.44548 0.771913 1.95778C1.05328 1.4607 1.43781 1.07148 1.9255 0.790119C2.42258 0.508755 2.96655 0.368073 3.55741 0.368073H9.97251C10.5634 0.368073 11.1027 0.508755 11.5904 0.790119C12.0874 1.07148 12.4766 1.4607 12.758 1.95778C13.0394 2.44548 13.1801 2.98476 13.1801 3.57562V9.99071C13.1801 10.5816 13.0394 11.1255 12.758 11.6226C12.4766 12.1103 12.0874 12.4949 11.5904 12.7762C11.1027 13.0576 10.5634 13.1983 9.97251 13.1983H3.55741C2.96655 13.1983 2.42258 13.0576 1.9255 12.7762C1.43781 12.4949 1.05328 12.1103 0.771913 11.6226C0.490549 11.1255 0.349867 10.5816 0.349867 9.99071V3.57562ZM12.3782 6.02348C12.1625 6.02348 11.9749 5.94377 11.8154 5.78433C11.656 5.62489 11.5763 5.43731 11.5763 5.2216C11.5763 5.00589 11.656 4.81831 11.8154 4.65887C11.9749 4.49943 12.1625 4.41971 12.3782 4.41971H13.1801C13.7709 4.41971 14.3102 4.56039 14.7979 4.84176C15.295 5.12312 15.6842 5.51234 15.9656 6.00942C16.2469 6.49711 16.3876 7.03639 16.3876 7.62726V13.1983C16.3876 13.7891 16.2469 14.3331 15.9656 14.8302C15.6842 15.3179 15.295 15.7024 14.7979 15.9838C14.3102 16.2651 13.7709 16.4058 13.1801 16.4058H7.60905C7.01819 16.4058 6.47422 16.2651 5.97714 15.9838C5.48945 15.7024 5.10492 15.3179 4.82355 14.8302C4.54219 14.3331 4.40151 13.7891 4.40151 13.1983V12.3964C4.40151 12.1807 4.48123 11.9931 4.64066 11.8336C4.8001 11.6742 4.98768 11.5945 5.20339 11.5945C5.4191 11.5945 5.60668 11.6742 5.76612 11.8336C5.92556 11.9931 6.00528 12.1807 6.00528 12.3964V13.1983C6.00528 13.7047 6.14596 14.0986 6.42733 14.38C6.70869 14.6614 7.1026 14.802 7.60905 14.802H13.1801C13.6865 14.802 14.0804 14.6614 14.3618 14.38C14.6431 14.0986 14.7838 13.7047 14.7838 13.1983V7.62726C14.7838 7.1208 14.6431 6.72689 14.3618 6.44553C14.0804 6.16417 13.6865 6.02348 13.1801 6.02348H12.3782Z" fill="#191404"/>
</svg>
