<svg width="21" height="20" viewBox="0 0 21 20" fill="none" xmlns="http://www.w3.org/2000/svg">
<path d="M14.088 6.62595C14.2287 6.46651 14.4163 6.38679 14.6508 6.38679C14.8665 6.38679 15.054 6.46651 15.2135 6.62595C15.3729 6.78539 15.4526 6.97297 15.4526 7.18868C15.4526 7.42315 15.3729 7.61072 15.2135 7.75141L6.23798 16.741L2.93196 17.5569C2.88506 17.5663 2.81941 17.571 2.735 17.571C2.49115 17.571 2.28482 17.4866 2.116 17.3178C1.94718 17.149 1.86278 16.9426 1.86278 16.6988C1.86278 16.6144 1.86746 16.5487 1.87684 16.5018L2.6928 13.1958L11.6824 4.22029C11.8231 4.06085 12.0106 3.98113 12.2451 3.98113C12.4608 3.98113 12.6484 4.06085 12.8078 4.22029C12.9673 4.37973 13.047 4.56731 13.047 4.78302C13.047 5.01749 12.9673 5.20506 12.8078 5.34575L4.15589 14.0117L3.45248 16.8395C3.47124 16.6706 3.33056 16.3518 3.03043 15.8828L5.42203 15.2779L14.088 6.62595ZM15.2135 7.75141C15.0728 7.91085 14.8852 7.99057 14.6508 7.99057C14.435 7.99057 14.2475 7.91085 14.088 7.75141C13.9286 7.59197 13.8489 7.40439 13.8489 7.18868C13.8489 6.95421 13.9286 6.76663 14.088 6.62595L15.2838 5.43015C15.5089 5.20506 15.6215 4.98466 15.6215 4.76895C15.6215 4.58137 15.5136 4.37035 15.2979 4.13588C15.0634 3.92017 14.8524 3.81231 14.6648 3.81231C14.4491 3.81231 14.2287 3.92486 14.0036 4.14995L12.8078 5.34575C12.6671 5.50518 12.4796 5.5849 12.2451 5.5849C12.0294 5.5849 11.8418 5.50518 11.6824 5.34575C11.5229 5.18631 11.4432 4.99873 11.4432 4.78302C11.4432 4.54855 11.5229 4.36097 11.6824 4.22029L12.8782 3.02449C13.122 2.77127 13.3987 2.58369 13.7082 2.46177C14.0177 2.33046 14.3366 2.26481 14.6648 2.26481C14.9837 2.26481 15.2932 2.33046 15.5933 2.46177C15.9028 2.58369 16.1795 2.76658 16.4234 3.01043C16.6672 3.25427 16.8501 3.53095 16.972 3.84045C17.1033 4.14057 17.169 4.45007 17.169 4.76895C17.169 5.09721 17.1033 5.41609 16.972 5.72559C16.8501 6.03509 16.6625 6.31176 16.4093 6.55561L15.2135 7.75141ZM15.2135 6.62595C15.3729 6.76663 15.4526 6.95421 15.4526 7.18868C15.4526 7.40439 15.3729 7.59197 15.2135 7.75141C15.054 7.91085 14.8665 7.99057 14.6508 7.99057C14.4163 7.99057 14.2287 7.91085 14.088 7.75141L11.6824 5.34575C11.5229 5.20506 11.4432 5.01749 11.4432 4.78302C11.4432 4.56731 11.5229 4.37973 11.6824 4.22029C11.8418 4.06085 12.0294 3.98113 12.2451 3.98113C12.4796 3.98113 12.6671 4.06085 12.8078 4.22029L15.2135 6.62595Z" fill="#191404"/>
</svg>
