<svg width="17" height="16" viewBox="0 0 17 16" fill="none" xmlns="http://www.w3.org/2000/svg">
<path d="M0.864384 10.1854C1.14449 10.7538 3.7175 15.6511 8.69672 15.6511C13.6759 15.6511 16.249 10.7538 16.5291 10.1854C16.6516 9.94053 16.7155 9.66968 16.7155 9.39495C16.7155 9.12022 16.6516 8.84937 16.5291 8.60449C15.8029 7.20453 14.808 5.9667 13.6033 4.96412L14.9386 3.38949C15.2223 3.05494 15.1798 2.55044 14.8491 2.26225C14.5114 1.96795 13.9933 2.00316 13.7045 2.34557L12.2544 4.06483C11.4013 3.5917 10.4659 3.2914 9.50023 3.18061V1.21711C9.50023 0.774238 9.13983 0.415222 8.69696 0.415222C8.25409 0.415222 7.8937 0.774239 7.8937 1.21711V3.18449C6.9286 3.292 5.99322 3.589 5.13952 4.059L3.68942 2.33974C3.40062 1.99733 2.88258 1.96203 2.54489 2.25633C2.21412 2.54459 2.17185 3.04916 2.45572 3.38369L3.79064 4.95683C2.58489 5.96169 1.58996 7.20243 0.864861 8.60546C0.74186 8.85063 0.677734 9.12193 0.677734 9.39714C0.677734 9.67234 0.74186 9.94364 0.864861 10.1888L0.864384 10.1854ZM2.29835 9.33956C2.56125 8.81049 4.68161 4.76832 8.69672 4.76832C12.7118 4.76832 14.8317 8.80854 15.0941 9.33519C15.104 9.35255 15.1092 9.37224 15.1092 9.39228C15.1092 9.41232 15.104 9.43201 15.0941 9.44936C14.8317 9.9765 12.7118 14.0187 8.69672 14.0187C4.68161 14.0187 2.56173 9.97844 2.29931 9.45179C2.28921 9.43452 2.28388 9.4148 2.28388 9.39471C2.28388 9.37461 2.28921 9.35489 2.29931 9.33762L2.29835 9.33956Z" fill="#191404"/>
<path d="M8.69668 12.1142C9.31596 12.1141 9.91606 11.8958 10.3947 11.4965C10.8734 11.0971 11.2011 10.5414 11.3218 9.92409C11.4426 9.30674 11.349 8.66591 11.0571 8.11081C10.7651 7.55571 10.2928 7.12068 9.72068 6.87984C9.14853 6.639 8.51192 6.60725 7.91932 6.79C7.32672 6.97276 6.8148 7.3587 6.47077 7.88209C6.12675 8.40547 5.97192 9.0339 6.03265 9.66031C6.09338 10.2867 6.36593 10.8723 6.80384 11.3174C7.05242 11.57 7.34752 11.7704 7.6723 11.9071C7.99707 12.0438 8.34516 12.1142 8.69668 12.1142ZM8.69668 8.30522C8.94439 8.30523 9.18443 8.39255 9.37591 8.55229C9.56738 8.71203 9.69843 8.93431 9.74675 9.18125C9.79505 9.42819 9.75763 9.68452 9.64085 9.90656C9.52406 10.1286 9.33514 10.3026 9.10628 10.399C8.87742 10.4953 8.62278 10.508 8.38574 10.4349C8.1487 10.3618 7.94393 10.2074 7.80632 9.99805C7.66871 9.7887 7.60678 9.53733 7.63107 9.28676C7.65536 9.0362 7.76438 8.80195 7.93955 8.62392C8.03898 8.52287 8.15702 8.44271 8.28693 8.38803C8.41684 8.33335 8.55607 8.30521 8.69668 8.30522Z" fill="#191404"/>
</svg>
