<svg width="247" height="56" viewBox="0 0 247 56" fill="none" xmlns="http://www.w3.org/2000/svg" preserveAspectRatio="none">
<path d="M246.993 24.788C247.15 34.0061 244.64 46.3637 234.759 51.574C230.21 53.9787 223.151 54.3127 216.407 54.7135C185.741 56.7174 153.665 55.9158 122.764 55.3815C104.255 55.0475 85.825 54.5799 67.3946 53.9787C51.3169 53.4443 33.2786 53.5779 17.9069 51.4403C10.4563 50.4384 6.71603 48.4166 3.25871 41.4167C-0.198607 34.4167 -0.407896 31.3329 0.377612 24.788C1.32685 16.8788 6.61333 11.2948 9.672 6.68569C12.7307 2.00983 18.299 -0.127702 24.2595 0.00589331C52.5718 0.406683 81.5114 0.0059212 109.588 1.07469C130.215 1.87627 150.889 1.34923 171.515 1.75002C226.88 0.937952 234.323 2.91669 239.509 6.68571C243.543 10.5 246.836 18.175 246.993 24.788Z" fill="#FFC629"/>
</svg>
