<svg width="99" height="35" viewBox="0 0 99 35" fill="none" xmlns="http://www.w3.org/2000/svg" preserveAspectRatio="none">
<path d="M90.3206 32.0976L90.3196 32.0981C88.9414 32.7914 87.1229 33.2118 85.0239 33.4848C83.0845 33.7371 80.9845 33.855 78.8698 33.9736C78.716 33.9823 78.5621 33.9909 78.4082 33.9996L45.1083 33.5301C42.5562 33.4495 39.94 33.3925 37.2977 33.335C28.6869 33.1476 19.798 32.9541 11.9418 31.9146L11.9375 31.914C9.48005 31.5996 7.77006 31.1388 6.40808 30.2899C5.06431 29.4524 3.96057 28.1739 2.84897 26.0324C1.68989 23.7995 1.27844 22.7793 1.11086 21.6154C0.983041 20.7277 0.993013 19.7666 1.00957 18.1704C1.01634 17.5176 1.02422 16.7585 1.02422 15.8547C1.02422 12.9978 1.84719 9.26336 4.1229 6.26899C6.36423 3.31986 10.0783 0.999969 16.082 1C22.3613 1.00003 30.3843 1.27818 36.8469 1.55701C40.0761 1.69633 42.912 1.83567 44.9406 1.94016C45.9548 1.99241 46.767 2.03594 47.3256 2.0664C47.6048 2.08163 47.8207 2.09359 47.9666 2.10174L48.1322 2.11103L48.1742 2.11341L48.1847 2.11401L48.1873 2.11415L48.1879 2.11419C48.1881 2.1142 48.1881 2.1142 48.2451 1.11583L48.1881 2.1142L48.2235 2.11622L48.259 2.11573C66.8744 1.85593 77.3856 2.0438 83.6696 2.59183C89.8602 3.13172 91.8111 4.01159 93.3412 5.05934C94.5467 6.16076 95.6864 7.84939 96.5413 9.79497C97.4047 11.7597 97.9462 13.9153 97.9956 15.8762C98.0988 21.6851 96.4169 29.0393 90.3206 32.0976Z" fill="#FFC629"  stroke="#FFC629" stroke-width="2" />
</svg>
