<svg width="17" height="17" viewBox="0 0 17 17" fill="none" xmlns="http://www.w3.org/2000/svg">
<path d="M13.3383 4.37751H3.71562V13.1983C3.71562 13.7047 3.8563 14.0986 4.13766 14.38C4.41903 14.6614 4.81294 14.802 5.31939 14.802H11.7345C12.2409 14.802 12.6348 14.6614 12.9162 14.38C13.1976 14.0986 13.3383 13.7047 13.3383 13.1983V4.37751ZM14.942 13.1983C14.942 13.7891 14.8014 14.3331 14.52 14.8302C14.2386 15.3179 13.8494 15.7024 13.3523 15.9838C12.8646 16.2651 12.3254 16.4058 11.7345 16.4058H5.31939C4.72853 16.4058 4.18456 16.2651 3.68748 15.9838C3.19978 15.7024 2.81525 15.3179 2.53389 14.8302C2.25253 14.3331 2.11184 13.7891 2.11184 13.1983V2.77373H14.942V13.1983ZM1.30996 4.37751C1.09425 4.37751 0.906669 4.29779 0.74723 4.13835C0.58779 3.97891 0.508071 3.79133 0.508071 3.57562C0.508071 3.35991 0.58779 3.17233 0.74723 3.01289C0.906669 2.85345 1.09425 2.77373 1.30996 2.77373H2.91373C3.12944 2.77373 3.31702 2.85345 3.47646 3.01289C3.6359 3.17233 3.71562 3.35991 3.71562 3.57562C3.71562 3.79133 3.6359 3.97891 3.47646 4.13835C3.31702 4.29779 3.12944 4.37751 2.91373 4.37751H1.30996ZM15.7439 2.77373C15.9596 2.77373 16.1472 2.85345 16.3066 3.01289C16.4661 3.17233 16.5458 3.35991 16.5458 3.57562C16.5458 3.79133 16.4661 3.97891 16.3066 4.13835C16.1472 4.29779 15.9596 4.37751 15.7439 4.37751H14.1401C13.9244 4.37751 13.7369 4.29779 13.5774 4.13835C13.418 3.97891 13.3383 3.79133 13.3383 3.57562C13.3383 3.35991 13.418 3.17233 13.5774 3.01289C13.7369 2.85345 13.9244 2.77373 14.1401 2.77373H15.7439ZM10.9326 0.368073C11.1483 0.368073 11.3359 0.447792 11.4953 0.607232C11.6548 0.766672 11.7345 0.954248 11.7345 1.16996C11.7345 1.38567 11.6548 1.57325 11.4953 1.73269C11.3359 1.89213 11.1483 1.97185 10.9326 1.97185H6.12128C5.90557 1.97185 5.71799 1.89213 5.55855 1.73269C5.39911 1.57325 5.31939 1.38567 5.31939 1.16996C5.31939 0.954248 5.39911 0.766672 5.55855 0.607232C5.71799 0.447792 5.90557 0.368073 6.12128 0.368073H10.9326ZM7.72505 12.3964C7.72505 12.6121 7.64533 12.7997 7.48589 12.9591C7.32645 13.1185 7.13888 13.1983 6.92316 13.1983C6.70745 13.1983 6.51988 13.1185 6.36044 12.9591C6.201 12.7997 6.12128 12.6121 6.12128 12.3964V6.78317C6.12128 6.56746 6.201 6.37988 6.36044 6.22044C6.51988 6.061 6.70745 5.98128 6.92316 5.98128C7.13888 5.98128 7.32645 6.061 7.48589 6.22044C7.64533 6.37988 7.72505 6.56746 7.72505 6.78317V12.3964ZM10.9326 12.3964C10.9326 12.6121 10.8529 12.7997 10.6934 12.9591C10.534 13.1185 10.3464 13.1983 10.1307 13.1983C9.915 13.1983 9.72742 13.1185 9.56799 12.9591C9.40855 12.7997 9.32883 12.6121 9.32883 12.3964V6.78317C9.32883 6.56746 9.40855 6.37988 9.56799 6.22044C9.72742 6.061 9.915 5.98128 10.1307 5.98128C10.3464 5.98128 10.534 6.061 10.6934 6.22044C10.8529 6.37988 10.9326 6.56746 10.9326 6.78317V12.3964Z" fill="#191404"/>
</svg>
